<svg id="visual" viewBox="0 0 900 600" width="900" height="600" xmlns="http://www.w3.org/2000/svg" xmlns:xlink="http://www.w3.org/1999/xlink" version="1.1"><path d="M0 121L10.7 130C21.3 139 42.7 157 64.2 150C85.7 143 107.3 111 128.8 111C150.3 111 171.7 143 193 161C214.3 179 235.7 183 257 182C278.3 181 299.7 175 321.2 194C342.7 213 364.3 257 385.8 257C407.3 257 428.7 213 450 181C471.3 149 492.7 129 514.2 128C535.7 127 557.3 145 578.8 138C600.3 131 621.7 99 643 100C664.3 101 685.7 135 707 133C728.3 131 749.7 93 771.2 85C792.7 77 814.3 99 835.8 105C857.3 111 878.7 101 889.3 96L900 91L900 0L889.3 0C878.7 0 857.3 0 835.8 0C814.3 0 792.7 0 771.2 0C749.7 0 728.3 0 707 0C685.7 0 664.3 0 643 0C621.7 0 600.3 0 578.8 0C557.3 0 535.7 0 514.2 0C492.7 0 471.3 0 450 0C428.7 0 407.3 0 385.8 0C364.3 0 342.7 0 321.2 0C299.7 0 278.3 0 257 0C235.7 0 214.3 0 193 0C171.7 0 150.3 0 128.8 0C107.3 0 85.7 0 64.2 0C42.7 0 21.3 0 10.7 0L0 0Z" fill="#4a4947"></path><path d="M0 199L10.7 207C21.3 215 42.7 231 64.2 223C85.7 215 107.3 183 128.8 174C150.3 165 171.7 179 193 202C214.3 225 235.7 257 257 259C278.3 261 299.7 233 321.2 238C342.7 243 364.3 281 385.8 285C407.3 289 428.7 259 450 235C471.3 211 492.7 193 514.2 201C535.7 209 557.3 243 578.8 233C600.3 223 621.7 169 643 164C664.3 159 685.7 203 707 214C728.3 225 749.7 203 771.2 187C792.7 171 814.3 161 835.8 166C857.3 171 878.7 191 889.3 201L900 211L900 89L889.3 94C878.7 99 857.3 109 835.8 103C814.3 97 792.7 75 771.2 83C749.7 91 728.3 129 707 131C685.7 133 664.3 99 643 98C621.7 97 600.3 129 578.8 136C557.3 143 535.7 125 514.2 126C492.7 127 471.3 147 450 179C428.7 211 407.3 255 385.8 255C364.3 255 342.7 211 321.2 192C299.7 173 278.3 179 257 180C235.7 181 214.3 177 193 159C171.7 141 150.3 109 128.8 109C107.3 109 85.7 141 64.2 148C42.7 155 21.3 137 10.7 128L0 119Z" fill="#6f5d4a"></path><path d="M0 223L10.7 232C21.3 241 42.7 259 64.2 257C85.7 255 107.3 233 128.8 226C150.3 219 171.7 227 193 250C214.3 273 235.7 311 257 315C278.3 319 299.7 289 321.2 291C342.7 293 364.3 327 385.8 325C407.3 323 428.7 285 450 256C471.3 227 492.7 207 514.2 225C535.7 243 557.3 299 578.8 301C600.3 303 621.7 251 643 244C664.3 237 685.7 275 707 281C728.3 287 749.7 261 771.2 243C792.7 225 814.3 215 835.8 219C857.3 223 878.7 241 889.3 250L900 259L900 209L889.3 199C878.7 189 857.3 169 835.8 164C814.3 159 792.7 169 771.2 185C749.7 201 728.3 223 707 212C685.7 201 664.3 157 643 162C621.7 167 600.3 221 578.8 231C557.3 241 535.7 207 514.2 199C492.7 191 471.3 209 450 233C428.7 257 407.3 287 385.8 283C364.3 279 342.7 241 321.2 236C299.7 231 278.3 259 257 257C235.7 255 214.3 223 193 200C171.7 177 150.3 163 128.8 172C107.3 181 85.7 213 64.2 221C42.7 229 21.3 213 10.7 205L0 197Z" fill="#9d6e51"></path><path d="M0 265L10.7 270C21.3 275 42.7 285 64.2 290C85.7 295 107.3 295 128.8 300C150.3 305 171.7 315 193 338C214.3 361 235.7 397 257 401C278.3 405 299.7 377 321.2 377C342.7 377 364.3 405 385.8 400C407.3 395 428.7 357 450 335C471.3 313 492.7 307 514.2 324C535.7 341 557.3 381 578.8 371C600.3 361 621.7 301 643 298C664.3 295 685.7 349 707 355C728.3 361 749.7 319 771.2 296C792.7 273 814.3 269 835.8 276C857.3 283 878.7 301 889.3 310L900 319L900 257L889.3 248C878.7 239 857.3 221 835.8 217C814.3 213 792.7 223 771.2 241C749.7 259 728.3 285 707 279C685.7 273 664.3 235 643 242C621.7 249 600.3 301 578.8 299C557.3 297 535.7 241 514.2 223C492.7 205 471.3 225 450 254C428.7 283 407.3 321 385.8 323C364.3 325 342.7 291 321.2 289C299.7 287 278.3 317 257 313C235.7 309 214.3 271 193 248C171.7 225 150.3 217 128.8 224C107.3 231 85.7 253 64.2 255C42.7 257 21.3 239 10.7 230L0 221Z" fill="#b17457"></path><path d="M0 421L10.7 427C21.3 433 42.7 445 64.2 432C85.7 419 107.3 381 128.8 386C150.3 391 171.7 439 193 461C214.3 483 235.7 479 257 477C278.3 475 299.7 475 321.2 478C342.7 481 364.3 487 385.8 472C407.3 457 428.7 421 450 412C471.3 403 492.7 421 514.2 441C535.7 461 557.3 483 578.8 466C600.3 449 621.7 393 643 390C664.3 387 685.7 437 707 450C728.3 463 749.7 439 771.2 407C792.7 375 814.3 335 835.8 323C857.3 311 878.7 327 889.3 335L900 343L900 317L889.3 308C878.7 299 857.3 281 835.8 274C814.3 267 792.7 271 771.2 294C749.7 317 728.3 359 707 353C685.7 347 664.3 293 643 296C621.7 299 600.3 359 578.8 369C557.3 379 535.7 339 514.2 322C492.7 305 471.3 311 450 333C428.7 355 407.3 393 385.8 398C364.3 403 342.7 375 321.2 375C299.7 375 278.3 403 257 399C235.7 395 214.3 359 193 336C171.7 313 150.3 303 128.8 298C107.3 293 85.7 293 64.2 288C42.7 283 21.3 273 10.7 268L0 263Z" fill="#9d6e51"></path><path d="M0 559L10.7 555C21.3 551 42.7 543 64.2 540C85.7 537 107.3 539 128.8 542C150.3 545 171.7 549 193 557C214.3 565 235.7 577 257 578C278.3 579 299.7 569 321.2 564C342.7 559 364.3 559 385.8 558C407.3 557 428.7 555 450 559C471.3 563 492.7 573 514.2 576C535.7 579 557.3 575 578.8 567C600.3 559 621.7 547 643 542C664.3 537 685.7 539 707 546C728.3 553 749.7 565 771.2 572C792.7 579 814.3 581 835.8 581C857.3 581 878.7 579 889.3 578L900 577L900 341L889.3 333C878.7 325 857.3 309 835.8 321C814.3 333 792.7 373 771.2 405C749.7 437 728.3 461 707 448C685.7 435 664.3 385 643 388C621.7 391 600.3 447 578.8 464C557.3 481 535.7 459 514.2 439C492.7 419 471.3 401 450 410C428.7 419 407.3 455 385.8 470C364.3 485 342.7 479 321.2 476C299.7 473 278.3 473 257 475C235.7 477 214.3 481 193 459C171.7 437 150.3 389 128.8 384C107.3 379 85.7 417 64.2 430C42.7 443 21.3 431 10.7 425L0 419Z" fill="#6f5d4a"></path><path d="M0 601L10.7 601C21.3 601 42.7 601 64.2 601C85.7 601 107.3 601 128.8 601C150.3 601 171.7 601 193 601C214.3 601 235.7 601 257 601C278.3 601 299.7 601 321.2 601C342.7 601 364.3 601 385.8 601C407.3 601 428.7 601 450 601C471.3 601 492.7 601 514.2 601C535.7 601 557.3 601 578.8 601C600.3 601 621.7 601 643 601C664.3 601 685.7 601 707 601C728.3 601 749.7 601 771.2 601C792.7 601 814.3 601 835.8 601C857.3 601 878.7 601 889.3 601L900 601L900 575L889.3 576C878.7 577 857.3 579 835.8 579C814.3 579 792.7 577 771.2 570C749.7 563 728.3 551 707 544C685.7 537 664.3 535 643 540C621.7 545 600.3 557 578.8 565C557.3 573 535.7 577 514.2 574C492.7 571 471.3 561 450 557C428.7 553 407.3 555 385.8 556C364.3 557 342.7 557 321.2 562C299.7 567 278.3 577 257 576C235.7 575 214.3 563 193 555C171.7 547 150.3 543 128.8 540C107.3 537 85.7 535 64.2 538C42.7 541 21.3 549 10.7 553L0 557Z" fill="#4a4947"></path></svg>