<svg id="visual" viewBox="0 0 900 600" width="900" height="600" xmlns="http://www.w3.org/2000/svg" xmlns:xlink="http://www.w3.org/1999/xlink" version="1.1"><rect x="0" y="0" width="900" height="600" fill="#001220"></rect><defs><linearGradient id="grad1_0" x1="33.3%" y1="0%" x2="100%" y2="100%"><stop offset="20%" stop-color="#6600ff" stop-opacity="1"></stop><stop offset="80%" stop-color="#6600ff" stop-opacity="1"></stop></linearGradient></defs><defs><linearGradient id="grad1_1" x1="33.3%" y1="0%" x2="100%" y2="100%"><stop offset="20%" stop-color="#6600ff" stop-opacity="1"></stop><stop offset="80%" stop-color="#001220" stop-opacity="1"></stop></linearGradient></defs><defs><linearGradient id="grad2_0" x1="0%" y1="0%" x2="66.7%" y2="100%"><stop offset="20%" stop-color="#6600ff" stop-opacity="1"></stop><stop offset="80%" stop-color="#6600ff" stop-opacity="1"></stop></linearGradient></defs><defs><linearGradient id="grad2_1" x1="0%" y1="0%" x2="66.7%" y2="100%"><stop offset="20%" stop-color="#001220" stop-opacity="1"></stop><stop offset="80%" stop-color="#6600ff" stop-opacity="1"></stop></linearGradient></defs><g transform="translate(900, 0)"><path d="M0 513.8C-31.4 481.8 -62.7 449.8 -101.2 443.6C-139.7 437.4 -185.4 457.1 -212.2 440.6C-239 424 -246.9 371.3 -274.3 344C-301.8 316.7 -348.6 314.9 -362.8 289.3C-376.9 263.7 -358.3 214.4 -382 184C-405.8 153.5 -471.9 141.9 -500.9 114.3C-529.9 86.8 -521.9 43.4 -513.8 0L0 0Z" fill="#003299"></path><path d="M0 256.9C-15.7 240.9 -31.4 224.9 -50.6 221.8C-69.9 218.7 -92.7 228.6 -106.1 220.3C-119.5 212 -123.5 185.6 -137.2 172C-150.9 158.4 -174.3 157.4 -181.4 144.6C-188.4 131.9 -179.1 107.2 -191 92C-202.9 76.7 -235.9 70.9 -250.5 57.2C-265 43.4 -260.9 21.7 -256.9 0L0 0Z" fill="#6600ff"></path></g><g transform="translate(0, 600)"><path d="M0 -513.8C30.6 -477.2 61.1 -440.6 99.9 -437.7C138.7 -434.9 185.8 -465.7 222.9 -462.9C260.1 -460.2 287.4 -423.9 310.5 -389.4C333.6 -354.8 352.4 -322.1 359.6 -286.8C366.8 -251.5 362.4 -213.8 386.5 -186.1C410.7 -158.5 463.4 -141 489.4 -111.7C515.4 -82.4 514.6 -41.2 513.8 0L0 0Z" fill="#003299"></path><path d="M0 -256.9C15.3 -238.6 30.6 -220.3 50 -218.9C69.4 -217.4 92.9 -232.8 111.5 -231.5C130.1 -230.1 143.7 -211.9 155.2 -194.7C166.8 -177.4 176.2 -161 179.8 -143.4C183.4 -125.8 181.2 -106.9 193.3 -93.1C205.3 -79.3 231.7 -70.5 244.7 -55.9C257.7 -41.2 257.3 -20.6 256.9 0L0 0Z" fill="#6600ff"></path></g></svg>